<mxfile host="Electron" agent="Mozilla/5.0 (X11; Linux x86_64) AppleWebKit/537.36 (KHTML, like Gecko) draw.io/24.7.17 Chrome/128.0.6613.186 Electron/32.2.1 Safari/537.36" version="24.7.17">
  <diagram name="Страница — 1" id="KuF1aNF__Dn9vjjgXvMM">
    <mxGraphModel dx="2816" dy="2047" grid="1" gridSize="10" guides="1" tooltips="1" connect="1" arrows="1" fold="1" page="1" pageScale="1" pageWidth="827" pageHeight="1169" math="0" shadow="0">
      <root>
        <mxCell id="0" />
        <mxCell id="1" parent="0" />
        <mxCell id="7VWR8RbHU1ZDGCrCG8eW-115" value="" style="rounded=0;whiteSpace=wrap;html=1;fillColor=#B3B3B3;fontColor=#333333;strokeColor=#666666;" parent="1" vertex="1">
          <mxGeometry x="2610" y="450" width="120" height="60" as="geometry" />
        </mxCell>
        <mxCell id="oi9j0CM-D3y_nceLljSZ-13" value="Преподаватель" style="rounded=0;whiteSpace=wrap;html=1;" parent="1" vertex="1">
          <mxGeometry x="560" y="485" width="120" height="60" as="geometry" />
        </mxCell>
        <mxCell id="oi9j0CM-D3y_nceLljSZ-25" value="" style="endArrow=classic;html=1;rounded=0;exitX=1;exitY=0.5;exitDx=0;exitDy=0;entryX=0;entryY=0.5;entryDx=0;entryDy=0;" parent="1" source="Vf7tZnKfZint6bOVtPZR-2" edge="1">
          <mxGeometry width="50" height="50" relative="1" as="geometry">
            <mxPoint x="190" y="660" as="sourcePoint" />
            <mxPoint x="310" y="660" as="targetPoint" />
          </mxGeometry>
        </mxCell>
        <mxCell id="oi9j0CM-D3y_nceLljSZ-30" value="Допуск на&lt;br&gt;экзамен" style="text;html=1;align=center;verticalAlign=middle;whiteSpace=wrap;rounded=0;" parent="1" vertex="1">
          <mxGeometry x="230" y="620" width="70" height="30" as="geometry" />
        </mxCell>
        <mxCell id="7VWR8RbHU1ZDGCrCG8eW-5" value="Ответы студента" style="text;html=1;align=center;verticalAlign=middle;whiteSpace=wrap;rounded=0;" parent="1" vertex="1">
          <mxGeometry x="900" y="620" width="60" height="30" as="geometry" />
        </mxCell>
        <mxCell id="7VWR8RbHU1ZDGCrCG8eW-9" value="Запись о допуске студента на экзамен в экзаменационную ведомость" style="ellipse;whiteSpace=wrap;html=1;aspect=fixed;" parent="1" vertex="1">
          <mxGeometry x="310" y="600" width="120" height="120" as="geometry" />
        </mxCell>
        <mxCell id="7VWR8RbHU1ZDGCrCG8eW-18" value="" style="endArrow=classic;html=1;rounded=0;exitX=1;exitY=0.5;exitDx=0;exitDy=0;entryX=0;entryY=0.5;entryDx=0;entryDy=0;" parent="1" source="7VWR8RbHU1ZDGCrCG8eW-9" target="7VWR8RbHU1ZDGCrCG8eW-20" edge="1">
          <mxGeometry width="50" height="50" relative="1" as="geometry">
            <mxPoint x="530" y="770" as="sourcePoint" />
            <mxPoint x="590" y="660" as="targetPoint" />
          </mxGeometry>
        </mxCell>
        <mxCell id="7VWR8RbHU1ZDGCrCG8eW-19" value="Экзаменационная&lt;br&gt;ведомость с допуском студента" style="text;html=1;align=center;verticalAlign=middle;whiteSpace=wrap;rounded=0;" parent="1" vertex="1">
          <mxGeometry x="440" y="600" width="110" height="50" as="geometry" />
        </mxCell>
        <mxCell id="7VWR8RbHU1ZDGCrCG8eW-20" value="Студент вытягивает билет" style="ellipse;whiteSpace=wrap;html=1;aspect=fixed;" parent="1" vertex="1">
          <mxGeometry x="560" y="600" width="120" height="120" as="geometry" />
        </mxCell>
        <mxCell id="7VWR8RbHU1ZDGCrCG8eW-21" value="" style="endArrow=classic;html=1;rounded=0;entryX=0.5;entryY=0;entryDx=0;entryDy=0;exitX=0.5;exitY=1;exitDx=0;exitDy=0;" parent="1" source="oi9j0CM-D3y_nceLljSZ-13" target="7VWR8RbHU1ZDGCrCG8eW-20" edge="1">
          <mxGeometry width="50" height="50" relative="1" as="geometry">
            <mxPoint x="650" y="520" as="sourcePoint" />
            <mxPoint x="800" y="710" as="targetPoint" />
          </mxGeometry>
        </mxCell>
        <mxCell id="7VWR8RbHU1ZDGCrCG8eW-22" value="Билеты" style="text;html=1;align=center;verticalAlign=middle;whiteSpace=wrap;rounded=0;" parent="1" vertex="1">
          <mxGeometry x="650" y="550" width="60" height="30" as="geometry" />
        </mxCell>
        <mxCell id="7VWR8RbHU1ZDGCrCG8eW-23" value="Студент готовиться к ответу" style="ellipse;whiteSpace=wrap;html=1;aspect=fixed;" parent="1" vertex="1">
          <mxGeometry x="770" y="600" width="120" height="120" as="geometry" />
        </mxCell>
        <mxCell id="7VWR8RbHU1ZDGCrCG8eW-24" value="" style="endArrow=classic;html=1;rounded=0;exitX=1;exitY=0.5;exitDx=0;exitDy=0;entryX=0;entryY=0.5;entryDx=0;entryDy=0;" parent="1" source="7VWR8RbHU1ZDGCrCG8eW-20" target="7VWR8RbHU1ZDGCrCG8eW-23" edge="1">
          <mxGeometry width="50" height="50" relative="1" as="geometry">
            <mxPoint x="790" y="760" as="sourcePoint" />
            <mxPoint x="840" y="710" as="targetPoint" />
          </mxGeometry>
        </mxCell>
        <mxCell id="7VWR8RbHU1ZDGCrCG8eW-25" value="Студент с билетом" style="text;html=1;align=center;verticalAlign=middle;whiteSpace=wrap;rounded=0;" parent="1" vertex="1">
          <mxGeometry x="695" y="620" width="60" height="30" as="geometry" />
        </mxCell>
        <mxCell id="7VWR8RbHU1ZDGCrCG8eW-26" value="Студент отвечает на билет" style="ellipse;whiteSpace=wrap;html=1;aspect=fixed;" parent="1" vertex="1">
          <mxGeometry x="970" y="600" width="120" height="120" as="geometry" />
        </mxCell>
        <mxCell id="7VWR8RbHU1ZDGCrCG8eW-27" value="" style="endArrow=classic;html=1;rounded=0;exitX=1;exitY=0.5;exitDx=0;exitDy=0;entryX=0;entryY=0.5;entryDx=0;entryDy=0;" parent="1" source="7VWR8RbHU1ZDGCrCG8eW-23" target="7VWR8RbHU1ZDGCrCG8eW-26" edge="1">
          <mxGeometry width="50" height="50" relative="1" as="geometry">
            <mxPoint x="760" y="780" as="sourcePoint" />
            <mxPoint x="1110" y="660" as="targetPoint" />
          </mxGeometry>
        </mxCell>
        <mxCell id="7VWR8RbHU1ZDGCrCG8eW-28" value="Зачётка с оценкой" style="text;html=1;align=center;verticalAlign=middle;whiteSpace=wrap;rounded=0;" parent="1" vertex="1">
          <mxGeometry x="1397" y="500" width="86" height="30" as="geometry" />
        </mxCell>
        <mxCell id="7VWR8RbHU1ZDGCrCG8eW-29" value="" style="endArrow=classic;html=1;rounded=0;exitX=1;exitY=0.5;exitDx=0;exitDy=0;entryX=0;entryY=0.5;entryDx=0;entryDy=0;" parent="1" source="7VWR8RbHU1ZDGCrCG8eW-26" target="7VWR8RbHU1ZDGCrCG8eW-31" edge="1">
          <mxGeometry width="50" height="50" relative="1" as="geometry">
            <mxPoint x="1020" y="780" as="sourcePoint" />
            <mxPoint x="1330" y="660" as="targetPoint" />
          </mxGeometry>
        </mxCell>
        <mxCell id="7VWR8RbHU1ZDGCrCG8eW-30" value="Результаты ответа на билет" style="text;html=1;align=center;verticalAlign=middle;whiteSpace=wrap;rounded=0;" parent="1" vertex="1">
          <mxGeometry x="1090" y="615" width="86" height="30" as="geometry" />
        </mxCell>
        <mxCell id="7VWR8RbHU1ZDGCrCG8eW-31" value="Оценивание ответа студента" style="ellipse;whiteSpace=wrap;html=1;aspect=fixed;" parent="1" vertex="1">
          <mxGeometry x="1176" y="600" width="120" height="120" as="geometry" />
        </mxCell>
        <mxCell id="7VWR8RbHU1ZDGCrCG8eW-32" value="" style="endArrow=none;html=1;rounded=0;exitX=0;exitY=0;exitDx=0;exitDy=0;entryX=1;entryY=0;entryDx=0;entryDy=0;" parent="1" source="7VWR8RbHU1ZDGCrCG8eW-28" target="7VWR8RbHU1ZDGCrCG8eW-28" edge="1">
          <mxGeometry width="50" height="50" relative="1" as="geometry">
            <mxPoint x="1190" y="770" as="sourcePoint" />
            <mxPoint x="1240" y="720" as="targetPoint" />
          </mxGeometry>
        </mxCell>
        <mxCell id="7VWR8RbHU1ZDGCrCG8eW-33" value="" style="endArrow=none;html=1;rounded=0;exitX=0;exitY=1;exitDx=0;exitDy=0;entryX=1;entryY=1;entryDx=0;entryDy=0;" parent="1" source="7VWR8RbHU1ZDGCrCG8eW-28" target="7VWR8RbHU1ZDGCrCG8eW-28" edge="1">
          <mxGeometry width="50" height="50" relative="1" as="geometry">
            <mxPoint x="1190" y="720" as="sourcePoint" />
            <mxPoint x="1240" y="670" as="targetPoint" />
          </mxGeometry>
        </mxCell>
        <mxCell id="7VWR8RbHU1ZDGCrCG8eW-35" value="" style="endArrow=classic;html=1;rounded=0;entryX=0.5;entryY=0;entryDx=0;entryDy=0;exitX=0.5;exitY=1;exitDx=0;exitDy=0;" parent="1" source="7VWR8RbHU1ZDGCrCG8eW-28" target="7VWR8RbHU1ZDGCrCG8eW-36" edge="1">
          <mxGeometry width="50" height="50" relative="1" as="geometry">
            <mxPoint x="1614" y="500" as="sourcePoint" />
            <mxPoint x="1500" y="600" as="targetPoint" />
          </mxGeometry>
        </mxCell>
        <mxCell id="7VWR8RbHU1ZDGCrCG8eW-36" value="Проставление оценки в ведомость и зачётку" style="ellipse;whiteSpace=wrap;html=1;aspect=fixed;" parent="1" vertex="1">
          <mxGeometry x="1380" y="600" width="120" height="120" as="geometry" />
        </mxCell>
        <mxCell id="7VWR8RbHU1ZDGCrCG8eW-37" value="" style="endArrow=classic;html=1;rounded=0;exitX=1;exitY=0.5;exitDx=0;exitDy=0;entryX=0;entryY=0.5;entryDx=0;entryDy=0;" parent="1" source="7VWR8RbHU1ZDGCrCG8eW-31" target="7VWR8RbHU1ZDGCrCG8eW-36" edge="1">
          <mxGeometry width="50" height="50" relative="1" as="geometry">
            <mxPoint x="1220" y="740" as="sourcePoint" />
            <mxPoint x="1270" y="690" as="targetPoint" />
          </mxGeometry>
        </mxCell>
        <mxCell id="7VWR8RbHU1ZDGCrCG8eW-38" value="Оценка за ответ" style="text;html=1;align=center;verticalAlign=middle;whiteSpace=wrap;rounded=0;" parent="1" vertex="1">
          <mxGeometry x="1310" y="620" width="60" height="30" as="geometry" />
        </mxCell>
        <mxCell id="7VWR8RbHU1ZDGCrCG8eW-39" value="" style="endArrow=classic;html=1;rounded=0;exitX=1;exitY=0.5;exitDx=0;exitDy=0;entryX=0.5;entryY=0;entryDx=0;entryDy=0;" parent="1" source="7VWR8RbHU1ZDGCrCG8eW-36" target="7VWR8RbHU1ZDGCrCG8eW-28" edge="1">
          <mxGeometry width="50" height="50" relative="1" as="geometry">
            <mxPoint x="1330" y="890" as="sourcePoint" />
            <mxPoint x="1500" y="460" as="targetPoint" />
            <Array as="points">
              <mxPoint x="1540" y="660" />
              <mxPoint x="1540" y="430" />
              <mxPoint x="1440" y="430" />
            </Array>
          </mxGeometry>
        </mxCell>
        <mxCell id="7VWR8RbHU1ZDGCrCG8eW-43" value="" style="endArrow=classic;html=1;rounded=0;exitX=0.5;exitY=1;exitDx=0;exitDy=0;entryX=0.5;entryY=1;entryDx=0;entryDy=0;" parent="1" source="7VWR8RbHU1ZDGCrCG8eW-36" target="7VWR8RbHU1ZDGCrCG8eW-9" edge="1">
          <mxGeometry width="50" height="50" relative="1" as="geometry">
            <mxPoint x="1300" y="710" as="sourcePoint" />
            <mxPoint x="370" y="800" as="targetPoint" />
            <Array as="points">
              <mxPoint x="1440" y="780" />
              <mxPoint x="370" y="780" />
            </Array>
          </mxGeometry>
        </mxCell>
        <mxCell id="7VWR8RbHU1ZDGCrCG8eW-48" value="" style="endArrow=none;html=1;rounded=0;" parent="1" edge="1">
          <mxGeometry width="50" height="50" relative="1" as="geometry">
            <mxPoint x="-330" y="900" as="sourcePoint" />
            <mxPoint x="1680" y="900" as="targetPoint" />
          </mxGeometry>
        </mxCell>
        <mxCell id="7VWR8RbHU1ZDGCrCG8eW-49" value="" style="endArrow=none;html=1;rounded=0;" parent="1" edge="1">
          <mxGeometry width="50" height="50" relative="1" as="geometry">
            <mxPoint x="-330" y="900" as="sourcePoint" />
            <mxPoint x="-330" y="-280" as="targetPoint" />
          </mxGeometry>
        </mxCell>
        <mxCell id="7VWR8RbHU1ZDGCrCG8eW-51" value="" style="endArrow=none;html=1;rounded=0;" parent="1" edge="1">
          <mxGeometry width="50" height="50" relative="1" as="geometry">
            <mxPoint x="1680" y="-280" as="sourcePoint" />
            <mxPoint x="1680" y="900" as="targetPoint" />
          </mxGeometry>
        </mxCell>
        <mxCell id="7VWR8RbHU1ZDGCrCG8eW-53" value="Преподаватель" style="rounded=0;whiteSpace=wrap;html=1;" parent="1" vertex="1">
          <mxGeometry x="2600" y="440" width="120" height="60" as="geometry" />
        </mxCell>
        <mxCell id="7VWR8RbHU1ZDGCrCG8eW-61" value="" style="endArrow=classic;html=1;rounded=0;exitX=1;exitY=0.5;exitDx=0;exitDy=0;entryX=0;entryY=0.5;entryDx=0;entryDy=0;" parent="1" edge="1">
          <mxGeometry width="50" height="50" relative="1" as="geometry">
            <mxPoint x="2230" y="630" as="sourcePoint" />
            <mxPoint x="2350" y="630" as="targetPoint" />
          </mxGeometry>
        </mxCell>
        <mxCell id="7VWR8RbHU1ZDGCrCG8eW-65" value="Допуск на&lt;br&gt;экзамен" style="text;html=1;align=center;verticalAlign=middle;whiteSpace=wrap;rounded=0;" parent="1" vertex="1">
          <mxGeometry x="2270" y="595" width="70" height="30" as="geometry" />
        </mxCell>
        <mxCell id="7VWR8RbHU1ZDGCrCG8eW-66" value="Ответы студента" style="text;html=1;align=center;verticalAlign=middle;whiteSpace=wrap;rounded=0;" parent="1" vertex="1">
          <mxGeometry x="2930" y="595" width="60" height="30" as="geometry" />
        </mxCell>
        <mxCell id="7VWR8RbHU1ZDGCrCG8eW-73" value="" style="endArrow=classic;html=1;rounded=0;exitX=1;exitY=0.5;exitDx=0;exitDy=0;entryX=0;entryY=0.5;entryDx=0;entryDy=0;" parent="1" source="7VWR8RbHU1ZDGCrCG8eW-101" target="7VWR8RbHU1ZDGCrCG8eW-102" edge="1">
          <mxGeometry width="50" height="50" relative="1" as="geometry">
            <mxPoint x="2470" y="630" as="sourcePoint" />
            <mxPoint x="2630" y="630" as="targetPoint" />
          </mxGeometry>
        </mxCell>
        <mxCell id="7VWR8RbHU1ZDGCrCG8eW-74" value="Экзаменационная&lt;br&gt;ведомость с допуском студента" style="text;html=1;align=center;verticalAlign=middle;whiteSpace=wrap;rounded=0;" parent="1" vertex="1">
          <mxGeometry x="2481" y="580" width="110" height="50" as="geometry" />
        </mxCell>
        <mxCell id="7VWR8RbHU1ZDGCrCG8eW-76" value="" style="endArrow=classic;html=1;rounded=0;exitX=0.5;exitY=1;exitDx=0;exitDy=0;entryX=0.5;entryY=0;entryDx=0;entryDy=0;" parent="1" source="7VWR8RbHU1ZDGCrCG8eW-53" target="7VWR8RbHU1ZDGCrCG8eW-102" edge="1">
          <mxGeometry width="50" height="50" relative="1" as="geometry">
            <mxPoint x="2790" y="730" as="sourcePoint" />
            <mxPoint x="2690" y="690" as="targetPoint" />
          </mxGeometry>
        </mxCell>
        <mxCell id="7VWR8RbHU1ZDGCrCG8eW-77" value="Билеты" style="text;html=1;align=center;verticalAlign=middle;whiteSpace=wrap;rounded=0;" parent="1" vertex="1">
          <mxGeometry x="2660" y="520" width="60" height="30" as="geometry" />
        </mxCell>
        <mxCell id="7VWR8RbHU1ZDGCrCG8eW-79" value="" style="endArrow=classic;html=1;rounded=0;exitX=1;exitY=0.5;exitDx=0;exitDy=0;entryX=0;entryY=0.5;entryDx=0;entryDy=0;" parent="1" source="7VWR8RbHU1ZDGCrCG8eW-102" target="7VWR8RbHU1ZDGCrCG8eW-103" edge="1">
          <mxGeometry width="50" height="50" relative="1" as="geometry">
            <mxPoint x="2750" y="630" as="sourcePoint" />
            <mxPoint x="2830" y="630" as="targetPoint" />
          </mxGeometry>
        </mxCell>
        <mxCell id="7VWR8RbHU1ZDGCrCG8eW-80" value="Студент с билетом" style="text;html=1;align=center;verticalAlign=middle;whiteSpace=wrap;rounded=0;" parent="1" vertex="1">
          <mxGeometry x="2730" y="595" width="60" height="30" as="geometry" />
        </mxCell>
        <mxCell id="7VWR8RbHU1ZDGCrCG8eW-82" value="" style="endArrow=classic;html=1;rounded=0;exitX=1;exitY=0.5;exitDx=0;exitDy=0;entryX=0;entryY=0.5;entryDx=0;entryDy=0;" parent="1" source="7VWR8RbHU1ZDGCrCG8eW-103" target="7VWR8RbHU1ZDGCrCG8eW-104" edge="1">
          <mxGeometry width="50" height="50" relative="1" as="geometry">
            <mxPoint x="2950" y="630" as="sourcePoint" />
            <mxPoint x="3040.0000000000136" y="630" as="targetPoint" />
          </mxGeometry>
        </mxCell>
        <mxCell id="7VWR8RbHU1ZDGCrCG8eW-83" value="Зачётка с оценкой" style="text;html=1;align=center;verticalAlign=middle;whiteSpace=wrap;rounded=0;" parent="1" vertex="1">
          <mxGeometry x="3427" y="450" width="86" height="30" as="geometry" />
        </mxCell>
        <mxCell id="7VWR8RbHU1ZDGCrCG8eW-84" value="" style="endArrow=classic;html=1;rounded=0;exitX=1;exitY=0.5;exitDx=0;exitDy=0;entryX=0;entryY=0.5;entryDx=0;entryDy=0;" parent="1" source="7VWR8RbHU1ZDGCrCG8eW-104" target="7VWR8RbHU1ZDGCrCG8eW-105" edge="1">
          <mxGeometry width="50" height="50" relative="1" as="geometry">
            <mxPoint x="3159.999999999987" y="630" as="sourcePoint" />
            <mxPoint x="3256" y="630" as="targetPoint" />
          </mxGeometry>
        </mxCell>
        <mxCell id="7VWR8RbHU1ZDGCrCG8eW-85" value="Результаты ответа на билет" style="text;html=1;align=center;verticalAlign=middle;whiteSpace=wrap;rounded=0;" parent="1" vertex="1">
          <mxGeometry x="3120" y="590" width="86" height="30" as="geometry" />
        </mxCell>
        <mxCell id="7VWR8RbHU1ZDGCrCG8eW-87" value="" style="endArrow=none;html=1;rounded=0;exitX=0;exitY=0;exitDx=0;exitDy=0;entryX=1;entryY=0;entryDx=0;entryDy=0;" parent="1" source="7VWR8RbHU1ZDGCrCG8eW-83" target="7VWR8RbHU1ZDGCrCG8eW-83" edge="1">
          <mxGeometry width="50" height="50" relative="1" as="geometry">
            <mxPoint x="3163" y="760" as="sourcePoint" />
            <mxPoint x="3213" y="710" as="targetPoint" />
          </mxGeometry>
        </mxCell>
        <mxCell id="7VWR8RbHU1ZDGCrCG8eW-88" value="" style="endArrow=none;html=1;rounded=0;exitX=0;exitY=1;exitDx=0;exitDy=0;entryX=1;entryY=1;entryDx=0;entryDy=0;" parent="1" source="7VWR8RbHU1ZDGCrCG8eW-83" target="7VWR8RbHU1ZDGCrCG8eW-83" edge="1">
          <mxGeometry width="50" height="50" relative="1" as="geometry">
            <mxPoint x="3163" y="710" as="sourcePoint" />
            <mxPoint x="3213" y="660" as="targetPoint" />
          </mxGeometry>
        </mxCell>
        <mxCell id="7VWR8RbHU1ZDGCrCG8eW-89" value="" style="endArrow=classic;html=1;rounded=0;entryX=0.5;entryY=0;entryDx=0;entryDy=0;exitX=0.5;exitY=1;exitDx=0;exitDy=0;" parent="1" source="7VWR8RbHU1ZDGCrCG8eW-83" target="7VWR8RbHU1ZDGCrCG8eW-106" edge="1">
          <mxGeometry width="50" height="50" relative="1" as="geometry">
            <mxPoint x="3587" y="470" as="sourcePoint" />
            <mxPoint x="3403" y="580" as="targetPoint" />
          </mxGeometry>
        </mxCell>
        <mxCell id="7VWR8RbHU1ZDGCrCG8eW-91" value="" style="endArrow=classic;html=1;rounded=0;exitX=1;exitY=0.5;exitDx=0;exitDy=0;entryX=0;entryY=0.5;entryDx=0;entryDy=0;" parent="1" source="7VWR8RbHU1ZDGCrCG8eW-105" target="7VWR8RbHU1ZDGCrCG8eW-106" edge="1">
          <mxGeometry width="50" height="50" relative="1" as="geometry">
            <mxPoint x="3376.0000000000005" y="630" as="sourcePoint" />
            <mxPoint x="3480" y="630" as="targetPoint" />
          </mxGeometry>
        </mxCell>
        <mxCell id="7VWR8RbHU1ZDGCrCG8eW-92" value="Оценка за ответ" style="text;html=1;align=center;verticalAlign=middle;whiteSpace=wrap;rounded=0;" parent="1" vertex="1">
          <mxGeometry x="3340" y="595" width="60" height="30" as="geometry" />
        </mxCell>
        <mxCell id="7VWR8RbHU1ZDGCrCG8eW-93" value="" style="endArrow=classic;html=1;rounded=0;exitX=1;exitY=0.5;exitDx=0;exitDy=0;entryX=0.5;entryY=0;entryDx=0;entryDy=0;" parent="1" target="7VWR8RbHU1ZDGCrCG8eW-83" edge="1">
          <mxGeometry width="50" height="50" relative="1" as="geometry">
            <mxPoint x="3533" y="630" as="sourcePoint" />
            <mxPoint x="3473" y="430" as="targetPoint" />
            <Array as="points">
              <mxPoint x="3573" y="630" />
              <mxPoint x="3573" y="400" />
              <mxPoint x="3470" y="400" />
            </Array>
          </mxGeometry>
        </mxCell>
        <mxCell id="7VWR8RbHU1ZDGCrCG8eW-96" value="" style="endArrow=classic;html=1;rounded=0;exitX=0.5;exitY=1;exitDx=0;exitDy=0;entryX=0.5;entryY=1;entryDx=0;entryDy=0;" parent="1" source="7VWR8RbHU1ZDGCrCG8eW-106" target="7VWR8RbHU1ZDGCrCG8eW-101" edge="1">
          <mxGeometry width="50" height="50" relative="1" as="geometry">
            <mxPoint x="3540" y="690" as="sourcePoint" />
            <mxPoint x="2410" y="770" as="targetPoint" />
            <Array as="points">
              <mxPoint x="3470" y="780" />
              <mxPoint x="2410" y="780" />
            </Array>
          </mxGeometry>
        </mxCell>
        <mxCell id="7VWR8RbHU1ZDGCrCG8eW-101" value="Запись о допуске студента на экзамен в экзаменационную ведомость" style="rounded=1;whiteSpace=wrap;html=1;" parent="1" vertex="1">
          <mxGeometry x="2350" y="580" width="120" height="110" as="geometry" />
        </mxCell>
        <mxCell id="7VWR8RbHU1ZDGCrCG8eW-102" value="Студент вытягивает билет" style="rounded=1;whiteSpace=wrap;html=1;" parent="1" vertex="1">
          <mxGeometry x="2600" y="580" width="120" height="110" as="geometry" />
        </mxCell>
        <mxCell id="7VWR8RbHU1ZDGCrCG8eW-103" value="Студент готовиться к ответу" style="rounded=1;whiteSpace=wrap;html=1;" parent="1" vertex="1">
          <mxGeometry x="2800" y="580" width="120" height="110" as="geometry" />
        </mxCell>
        <mxCell id="7VWR8RbHU1ZDGCrCG8eW-104" value="Студент отвечает на билет" style="rounded=1;whiteSpace=wrap;html=1;" parent="1" vertex="1">
          <mxGeometry x="3000" y="580" width="120" height="110" as="geometry" />
        </mxCell>
        <mxCell id="7VWR8RbHU1ZDGCrCG8eW-105" value="Оценивание ответа студента" style="rounded=1;whiteSpace=wrap;html=1;" parent="1" vertex="1">
          <mxGeometry x="3205" y="580" width="120" height="110" as="geometry" />
        </mxCell>
        <mxCell id="7VWR8RbHU1ZDGCrCG8eW-106" value="Проставление оценки в ведомость и зачётку" style="rounded=1;whiteSpace=wrap;html=1;" parent="1" vertex="1">
          <mxGeometry x="3410" y="580" width="120" height="110" as="geometry" />
        </mxCell>
        <mxCell id="7VWR8RbHU1ZDGCrCG8eW-108" value="№2" style="rounded=0;whiteSpace=wrap;html=1;fillColor=none;" parent="1" vertex="1">
          <mxGeometry x="3400" y="450" width="30" height="30" as="geometry" />
        </mxCell>
        <mxCell id="a7-azmmy95JN8hFRcXhF-1" value="Студент" style="rounded=0;whiteSpace=wrap;html=1;" parent="1" vertex="1">
          <mxGeometry x="280" y="50" width="120" height="60" as="geometry" />
        </mxCell>
        <mxCell id="a7-azmmy95JN8hFRcXhF-3" value="Успешная сдача всех лабораторных и практических работ" style="ellipse;whiteSpace=wrap;html=1;aspect=fixed;" parent="1" vertex="1">
          <mxGeometry x="510" y="20" width="120" height="120" as="geometry" />
        </mxCell>
        <mxCell id="a7-azmmy95JN8hFRcXhF-5" value="" style="endArrow=classic;html=1;rounded=0;exitX=1;exitY=0.5;exitDx=0;exitDy=0;entryX=0;entryY=0.5;entryDx=0;entryDy=0;" parent="1" source="a7-azmmy95JN8hFRcXhF-1" target="a7-azmmy95JN8hFRcXhF-3" edge="1">
          <mxGeometry width="50" height="50" relative="1" as="geometry">
            <mxPoint x="805" y="120" as="sourcePoint" />
            <mxPoint x="855" y="70" as="targetPoint" />
          </mxGeometry>
        </mxCell>
        <mxCell id="a7-azmmy95JN8hFRcXhF-9" value="" style="endArrow=classic;html=1;rounded=0;exitX=1;exitY=0.5;exitDx=0;exitDy=0;entryX=0;entryY=0.5;entryDx=0;entryDy=0;" parent="1" source="a7-azmmy95JN8hFRcXhF-3" edge="1">
          <mxGeometry width="50" height="50" relative="1" as="geometry">
            <mxPoint x="805" y="120" as="sourcePoint" />
            <mxPoint x="715" y="80" as="targetPoint" />
          </mxGeometry>
        </mxCell>
        <mxCell id="a7-azmmy95JN8hFRcXhF-11" value="Практические и лабораторные работы" style="text;html=1;align=center;verticalAlign=middle;whiteSpace=wrap;rounded=0;rotation=0;" parent="1" vertex="1">
          <mxGeometry x="400" y="35" width="120" height="40" as="geometry" />
        </mxCell>
        <mxCell id="a7-azmmy95JN8hFRcXhF-13" value="Допуск на&lt;br&gt;экзамен" style="text;html=1;align=center;verticalAlign=middle;whiteSpace=wrap;rounded=0;" parent="1" vertex="1">
          <mxGeometry x="640" y="40" width="70" height="30" as="geometry" />
        </mxCell>
        <mxCell id="a7-azmmy95JN8hFRcXhF-14" value="Запись о допуске студента на экзамен в экзаменационную ведомость" style="ellipse;whiteSpace=wrap;html=1;aspect=fixed;" parent="1" vertex="1">
          <mxGeometry x="715" y="20" width="120" height="120" as="geometry" />
        </mxCell>
        <mxCell id="a7-azmmy95JN8hFRcXhF-20" value="Сдача экзамена" style="ellipse;whiteSpace=wrap;html=1;aspect=fixed;" parent="1" vertex="1">
          <mxGeometry x="980" y="20" width="120" height="120" as="geometry" />
        </mxCell>
        <mxCell id="a7-azmmy95JN8hFRcXhF-22" value="Экзаменационная&lt;br&gt;ведомость с допуском студента" style="text;html=1;align=center;verticalAlign=middle;whiteSpace=wrap;rounded=0;" parent="1" vertex="1">
          <mxGeometry x="850" y="30" width="110" height="50" as="geometry" />
        </mxCell>
        <mxCell id="a7-azmmy95JN8hFRcXhF-23" value="" style="endArrow=classic;html=1;rounded=0;exitX=1;exitY=0.5;exitDx=0;exitDy=0;entryX=0;entryY=0.5;entryDx=0;entryDy=0;" parent="1" source="a7-azmmy95JN8hFRcXhF-14" target="a7-azmmy95JN8hFRcXhF-20" edge="1">
          <mxGeometry width="50" height="50" relative="1" as="geometry">
            <mxPoint x="1205" y="440" as="sourcePoint" />
            <mxPoint x="1255" y="390" as="targetPoint" />
          </mxGeometry>
        </mxCell>
        <mxCell id="a7-azmmy95JN8hFRcXhF-24" value="" style="endArrow=classic;html=1;rounded=0;exitX=1;exitY=0.5;exitDx=0;exitDy=0;entryX=0.5;entryY=1;entryDx=0;entryDy=0;" parent="1" source="a7-azmmy95JN8hFRcXhF-20" target="a7-azmmy95JN8hFRcXhF-14" edge="1">
          <mxGeometry width="50" height="50" relative="1" as="geometry">
            <mxPoint x="1085" y="290" as="sourcePoint" />
            <mxPoint x="775" y="220" as="targetPoint" />
            <Array as="points">
              <mxPoint x="1150" y="80" />
              <mxPoint x="1150" y="200" />
              <mxPoint x="775" y="200" />
            </Array>
          </mxGeometry>
        </mxCell>
        <mxCell id="a7-azmmy95JN8hFRcXhF-25" value="Экзаменационная ведомость с оценкой" style="text;html=1;align=center;verticalAlign=middle;whiteSpace=wrap;rounded=0;" parent="1" vertex="1">
          <mxGeometry x="895" y="210" width="170" height="30" as="geometry" />
        </mxCell>
        <mxCell id="a7-azmmy95JN8hFRcXhF-26" value="" style="endArrow=none;html=1;rounded=0;dashed=1;dashPattern=12 12;" parent="1" edge="1">
          <mxGeometry width="50" height="50" relative="1" as="geometry">
            <mxPoint x="-330" y="360" as="sourcePoint" />
            <mxPoint x="1680" y="360" as="targetPoint" />
          </mxGeometry>
        </mxCell>
        <mxCell id="a7-azmmy95JN8hFRcXhF-27" value="" style="endArrow=none;html=1;rounded=0;" parent="1" edge="1">
          <mxGeometry width="50" height="50" relative="1" as="geometry">
            <mxPoint x="-330" y="-280" as="sourcePoint" />
            <mxPoint x="1680" y="-280" as="targetPoint" />
          </mxGeometry>
        </mxCell>
        <mxCell id="a7-azmmy95JN8hFRcXhF-28" value="&lt;b&gt;&lt;font style=&quot;font-size: 31px;&quot;&gt;Уровень 0&lt;/font&gt;&lt;/b&gt;" style="rounded=0;whiteSpace=wrap;html=1;fillColor=none;" parent="1" vertex="1">
          <mxGeometry x="-620" y="-280" width="290" height="90" as="geometry" />
        </mxCell>
        <mxCell id="a7-azmmy95JN8hFRcXhF-31" value="&lt;b&gt;&lt;font style=&quot;font-size: 31px;&quot;&gt;Уровень 1&lt;/font&gt;&lt;/b&gt;" style="rounded=0;whiteSpace=wrap;html=1;fillColor=none;" parent="1" vertex="1">
          <mxGeometry x="-620" y="360" width="290" height="90" as="geometry" />
        </mxCell>
        <mxCell id="a7-azmmy95JN8hFRcXhF-40" value="" style="endArrow=classic;html=1;rounded=0;exitX=1;exitY=0.5;exitDx=0;exitDy=0;entryX=0;entryY=0.5;entryDx=0;entryDy=0;" parent="1" edge="1">
          <mxGeometry width="50" height="50" relative="1" as="geometry">
            <mxPoint x="2735.000000000038" y="100" as="sourcePoint" />
            <mxPoint x="2855" y="100" as="targetPoint" />
          </mxGeometry>
        </mxCell>
        <mxCell id="a7-azmmy95JN8hFRcXhF-44" value="Допуск на&lt;br&gt;экзамен" style="text;html=1;align=center;verticalAlign=middle;whiteSpace=wrap;rounded=0;" parent="1" vertex="1">
          <mxGeometry x="2740" y="65" width="70" height="30" as="geometry" />
        </mxCell>
        <mxCell id="a7-azmmy95JN8hFRcXhF-52" value="Экзаменационная&lt;br&gt;ведомость с допуском студента" style="text;html=1;align=center;verticalAlign=middle;whiteSpace=wrap;rounded=0;" parent="1" vertex="1">
          <mxGeometry x="2950" y="50" width="110" height="50" as="geometry" />
        </mxCell>
        <mxCell id="a7-azmmy95JN8hFRcXhF-53" value="" style="endArrow=classic;html=1;rounded=0;exitX=1;exitY=0.5;exitDx=0;exitDy=0;entryX=0;entryY=0.5;entryDx=0;entryDy=0;" parent="1" source="a7-azmmy95JN8hFRcXhF-59" target="a7-azmmy95JN8hFRcXhF-60" edge="1">
          <mxGeometry width="50" height="50" relative="1" as="geometry">
            <mxPoint x="2975" y="100" as="sourcePoint" />
            <mxPoint x="3165" y="100" as="targetPoint" />
          </mxGeometry>
        </mxCell>
        <mxCell id="a7-azmmy95JN8hFRcXhF-54" value="" style="endArrow=classic;html=1;rounded=0;exitX=1;exitY=0.5;exitDx=0;exitDy=0;entryX=0.5;entryY=1;entryDx=0;entryDy=0;" parent="1" source="a7-azmmy95JN8hFRcXhF-60" target="a7-azmmy95JN8hFRcXhF-59" edge="1">
          <mxGeometry width="50" height="50" relative="1" as="geometry">
            <mxPoint x="3285" y="100" as="sourcePoint" />
            <mxPoint x="2915" y="240" as="targetPoint" />
            <Array as="points">
              <mxPoint x="3250" y="105" />
              <mxPoint x="3250" y="230" />
              <mxPoint x="2870" y="230" />
            </Array>
          </mxGeometry>
        </mxCell>
        <mxCell id="a7-azmmy95JN8hFRcXhF-55" value="Экзаменационная ведомость с оценкой" style="text;html=1;align=center;verticalAlign=middle;whiteSpace=wrap;rounded=0;" parent="1" vertex="1">
          <mxGeometry x="2975" y="240" width="170" height="30" as="geometry" />
        </mxCell>
        <mxCell id="a7-azmmy95JN8hFRcXhF-57" value="Успешная сдача всех лабораторных и практических работ" style="rounded=1;whiteSpace=wrap;html=1;" parent="1" vertex="1">
          <mxGeometry x="2620" y="45" width="120" height="110" as="geometry" />
        </mxCell>
        <mxCell id="a7-azmmy95JN8hFRcXhF-59" value="Запись о допуске студента на экзамен в экзаменационную ведомость" style="rounded=1;whiteSpace=wrap;html=1;" parent="1" vertex="1">
          <mxGeometry x="2810" y="50" width="120" height="110" as="geometry" />
        </mxCell>
        <mxCell id="a7-azmmy95JN8hFRcXhF-60" value="Сдача экзамена" style="rounded=1;whiteSpace=wrap;html=1;" parent="1" vertex="1">
          <mxGeometry x="3070" y="50" width="120" height="110" as="geometry" />
        </mxCell>
        <mxCell id="a7-azmmy95JN8hFRcXhF-62" value="" style="endArrow=none;html=1;rounded=0;" parent="1" edge="1">
          <mxGeometry width="50" height="50" relative="1" as="geometry">
            <mxPoint x="1680" y="900" as="sourcePoint" />
            <mxPoint x="3720" y="900" as="targetPoint" />
          </mxGeometry>
        </mxCell>
        <mxCell id="a7-azmmy95JN8hFRcXhF-63" value="" style="endArrow=none;html=1;rounded=0;" parent="1" edge="1">
          <mxGeometry width="50" height="50" relative="1" as="geometry">
            <mxPoint x="3719" y="-280" as="sourcePoint" />
            <mxPoint x="3719" y="900" as="targetPoint" />
          </mxGeometry>
        </mxCell>
        <mxCell id="a7-azmmy95JN8hFRcXhF-64" value="" style="endArrow=none;html=1;rounded=0;" parent="1" edge="1">
          <mxGeometry width="50" height="50" relative="1" as="geometry">
            <mxPoint x="1685" y="-280" as="sourcePoint" />
            <mxPoint x="3720" y="-280" as="targetPoint" />
          </mxGeometry>
        </mxCell>
        <mxCell id="a7-azmmy95JN8hFRcXhF-65" value="" style="endArrow=none;html=1;rounded=0;dashed=1;dashPattern=12 12;" parent="1" edge="1">
          <mxGeometry width="50" height="50" relative="1" as="geometry">
            <mxPoint x="1685" y="360" as="sourcePoint" />
            <mxPoint x="3710" y="360" as="targetPoint" />
          </mxGeometry>
        </mxCell>
        <mxCell id="Vf7tZnKfZint6bOVtPZR-1" value="Студент" style="rounded=0;whiteSpace=wrap;html=1;" parent="1" vertex="1">
          <mxGeometry x="-120" y="630" width="120" height="60" as="geometry" />
        </mxCell>
        <mxCell id="Vf7tZnKfZint6bOVtPZR-2" value="Успешная сдача всех лабораторных и практических работ" style="ellipse;whiteSpace=wrap;html=1;aspect=fixed;" parent="1" vertex="1">
          <mxGeometry x="100" y="600" width="120" height="120" as="geometry" />
        </mxCell>
        <mxCell id="Vf7tZnKfZint6bOVtPZR-3" value="" style="endArrow=classic;html=1;rounded=0;exitX=1;exitY=0.5;exitDx=0;exitDy=0;entryX=0;entryY=0.5;entryDx=0;entryDy=0;" parent="1" source="Vf7tZnKfZint6bOVtPZR-1" target="Vf7tZnKfZint6bOVtPZR-2" edge="1">
          <mxGeometry width="50" height="50" relative="1" as="geometry">
            <mxPoint x="395" y="700" as="sourcePoint" />
            <mxPoint x="445" y="650" as="targetPoint" />
          </mxGeometry>
        </mxCell>
        <mxCell id="Vf7tZnKfZint6bOVtPZR-4" value="Практические и лабораторные работы" style="text;html=1;align=center;verticalAlign=middle;whiteSpace=wrap;rounded=0;rotation=0;" parent="1" vertex="1">
          <mxGeometry x="-10" y="615" width="120" height="40" as="geometry" />
        </mxCell>
        <mxCell id="Vf7tZnKfZint6bOVtPZR-5" value="" style="rounded=0;whiteSpace=wrap;html=1;fillColor=#B3B3B3;fontColor=#333333;strokeColor=#666666;" parent="1" vertex="1">
          <mxGeometry x="2379" y="80" width="120" height="60" as="geometry" />
        </mxCell>
        <mxCell id="a7-azmmy95JN8hFRcXhF-32" value="Студент" style="rounded=0;whiteSpace=wrap;html=1;" parent="1" vertex="1">
          <mxGeometry x="2370" y="70" width="120" height="60" as="geometry" />
        </mxCell>
        <mxCell id="a7-azmmy95JN8hFRcXhF-36" value="" style="endArrow=classic;html=1;rounded=0;exitX=1;exitY=0.5;exitDx=0;exitDy=0;entryX=0;entryY=0.5;entryDx=0;entryDy=0;" parent="1" source="a7-azmmy95JN8hFRcXhF-32" target="a7-azmmy95JN8hFRcXhF-57" edge="1">
          <mxGeometry width="50" height="50" relative="1" as="geometry">
            <mxPoint x="2945" y="140" as="sourcePoint" />
            <mxPoint x="2614.999999999961" y="100" as="targetPoint" />
          </mxGeometry>
        </mxCell>
        <mxCell id="Vf7tZnKfZint6bOVtPZR-6" value="Практические и лабораторные работы" style="text;html=1;align=center;verticalAlign=middle;whiteSpace=wrap;rounded=0;rotation=0;" parent="1" vertex="1">
          <mxGeometry x="2499" y="55" width="120" height="40" as="geometry" />
        </mxCell>
        <mxCell id="Vf7tZnKfZint6bOVtPZR-7" value="Успешная сдача всех лабораторных и практических работ" style="rounded=1;whiteSpace=wrap;html=1;" parent="1" vertex="1">
          <mxGeometry x="2140" y="580" width="120" height="110" as="geometry" />
        </mxCell>
        <mxCell id="Vf7tZnKfZint6bOVtPZR-8" value="" style="rounded=0;whiteSpace=wrap;html=1;fillColor=#B3B3B3;fontColor=#333333;strokeColor=#666666;" parent="1" vertex="1">
          <mxGeometry x="1909" y="617" width="120" height="60" as="geometry" />
        </mxCell>
        <mxCell id="Vf7tZnKfZint6bOVtPZR-9" value="Студент" style="rounded=0;whiteSpace=wrap;html=1;" parent="1" vertex="1">
          <mxGeometry x="1900" y="605" width="120" height="60" as="geometry" />
        </mxCell>
        <mxCell id="Vf7tZnKfZint6bOVtPZR-10" value="" style="endArrow=classic;html=1;rounded=0;exitX=1;exitY=0.5;exitDx=0;exitDy=0;entryX=0;entryY=0.5;entryDx=0;entryDy=0;" parent="1" source="Vf7tZnKfZint6bOVtPZR-9" target="Vf7tZnKfZint6bOVtPZR-7" edge="1">
          <mxGeometry width="50" height="50" relative="1" as="geometry">
            <mxPoint x="2435" y="675" as="sourcePoint" />
            <mxPoint x="2104.999999999961" y="635" as="targetPoint" />
          </mxGeometry>
        </mxCell>
        <mxCell id="Vf7tZnKfZint6bOVtPZR-11" value="Практические и лабораторные работы" style="text;html=1;align=center;verticalAlign=middle;whiteSpace=wrap;rounded=0;rotation=0;" parent="1" vertex="1">
          <mxGeometry x="2020" y="585" width="120" height="40" as="geometry" />
        </mxCell>
        <mxCell id="9c2dHG0O4m7vhXWFaXtY-6" value="Аттестационная ведомость с оценкой" style="text;html=1;align=center;verticalAlign=middle;whiteSpace=wrap;rounded=0;" vertex="1" parent="1">
          <mxGeometry x="870" y="764" width="120" height="30" as="geometry" />
        </mxCell>
        <mxCell id="9c2dHG0O4m7vhXWFaXtY-8" value="" style="endArrow=none;html=1;rounded=0;exitX=0;exitY=0;exitDx=0;exitDy=0;entryX=1;entryY=0;entryDx=0;entryDy=0;" edge="1" parent="1">
          <mxGeometry width="50" height="50" relative="1" as="geometry">
            <mxPoint x="887" y="764" as="sourcePoint" />
            <mxPoint x="973" y="764" as="targetPoint" />
          </mxGeometry>
        </mxCell>
        <mxCell id="9c2dHG0O4m7vhXWFaXtY-9" value="" style="endArrow=none;html=1;rounded=0;exitX=0;exitY=1;exitDx=0;exitDy=0;entryX=1;entryY=1;entryDx=0;entryDy=0;" edge="1" parent="1">
          <mxGeometry width="50" height="50" relative="1" as="geometry">
            <mxPoint x="887" y="794" as="sourcePoint" />
            <mxPoint x="973" y="794" as="targetPoint" />
          </mxGeometry>
        </mxCell>
        <mxCell id="9c2dHG0O4m7vhXWFaXtY-13" value="Аттестационная ведомость с оценкой" style="text;html=1;align=center;verticalAlign=middle;whiteSpace=wrap;rounded=0;" vertex="1" parent="1">
          <mxGeometry x="2913.5" y="764" width="120" height="30" as="geometry" />
        </mxCell>
        <mxCell id="9c2dHG0O4m7vhXWFaXtY-14" value="" style="endArrow=none;html=1;rounded=0;exitX=0;exitY=0;exitDx=0;exitDy=0;entryX=1;entryY=0;entryDx=0;entryDy=0;" edge="1" parent="1" source="9c2dHG0O4m7vhXWFaXtY-13" target="9c2dHG0O4m7vhXWFaXtY-13">
          <mxGeometry width="50" height="50" relative="1" as="geometry">
            <mxPoint x="2649.5" y="1074" as="sourcePoint" />
            <mxPoint x="2699.5" y="1024" as="targetPoint" />
          </mxGeometry>
        </mxCell>
        <mxCell id="9c2dHG0O4m7vhXWFaXtY-15" value="" style="endArrow=none;html=1;rounded=0;exitX=0;exitY=1;exitDx=0;exitDy=0;entryX=1;entryY=1;entryDx=0;entryDy=0;" edge="1" parent="1" source="9c2dHG0O4m7vhXWFaXtY-13" target="9c2dHG0O4m7vhXWFaXtY-13">
          <mxGeometry width="50" height="50" relative="1" as="geometry">
            <mxPoint x="2649.5" y="1024" as="sourcePoint" />
            <mxPoint x="2699.5" y="974" as="targetPoint" />
          </mxGeometry>
        </mxCell>
        <mxCell id="9c2dHG0O4m7vhXWFaXtY-16" value="№2" style="rounded=0;whiteSpace=wrap;html=1;fillColor=none;" vertex="1" parent="1">
          <mxGeometry x="2886.5" y="764" width="30" height="30" as="geometry" />
        </mxCell>
      </root>
    </mxGraphModel>
  </diagram>
</mxfile>
